<svg xmlns="http://www.w3.org/2000/svg" width="18.655" height="20" viewBox="0 0 18.655 20">
  <g id="그룹_6193" data-name="그룹 6193" transform="translate(0)">
    <g id="그룹_6195" data-name="그룹 6195" transform="translate(0)">
      <path id="패스_2439" data-name="패스 2439" d="M10.384,10.177A5.089,5.089,0,1,0,5.293,5.088a5.1,5.1,0,0,0,5.091,5.089M7.4,5.088a2.985,2.985,0,1,1,2.985,2.984A2.989,2.989,0,0,1,7.4,5.088" transform="translate(-1.055)" fill="#666"/>
      <path id="패스_2440" data-name="패스 2440" d="M18.589,20.441c-1-3.757-4.639-6.185-9.266-6.185-4.7,0-8.248,2.37-9.259,6.187A1.887,1.887,0,0,0,.4,22.093a1.9,1.9,0,0,0,1.519.75h14.82a1.914,1.914,0,0,0,1.852-2.4m-2.317.132a.3.3,0,0,1-.245.131H2.626a.3.3,0,0,1-.245-.131.263.263,0,0,1-.03-.251c.981-2.459,3.588-3.928,6.973-3.928s6,1.469,6.979,3.928a.265.265,0,0,1-.03.251" transform="translate(0 -2.843)" fill="#666"/>
    </g>
  </g>
</svg>
