<?xml version="1.0" encoding="utf-8"?>
<!-- Generator: Adobe Illustrator 27.3.1, SVG Export Plug-In . SVG Version: 6.00 Build 0)  -->
<svg version="1.1" id="레이어_1" xmlns="http://www.w3.org/2000/svg" xmlns:xlink="http://www.w3.org/1999/xlink" x="0px"
	 y="0px" viewBox="0 0 20.5 20.5" style="enable-background:new 0 0 20.5 20.5;" xml:space="preserve">
<style type="text/css">
	.st0{fill:#666666;}
</style>
<path class="st0" d="M10.2,0C4.6,0,0,4.6,0,10.2s4.6,10.3,10.2,10.3c5.7,0,10.2-4.6,10.2-10.3S15.9,0,10.2,0z M14.6,9.2
	c0-0.3,0-0.6,0-0.9V8.1h3.7l0,0c0.2,0.7,0.3,1.4,0.3,2s-0.1,1.4-0.3,2l-0.1,0.2h-3.7l0-0.1c0.1-0.7,0.1-1.4,0.1-2
	C14.7,9.9,14.7,9.5,14.6,9.2z M12.8,2.3L13,2.4c2,0.7,3.5,2,4.5,3.7l0.1,0.1h-3.2l0,0C14,5,13.5,3.8,12.9,2.5L12.8,2.3z M13,18.1
	l-0.2,0.1L13,18.1c0.6-1.3,1.1-2.5,1.3-3.7l0-0.1h3.1l0,0C16.5,16.1,14.9,17.4,13,18.1z M7.5,2.4l0.2-0.1L7.5,2.4
	C6.9,3.8,6.5,5,6.2,6.1l0,0.1H3l0.1-0.1C4,4.4,5.6,3.1,7.5,2.4z M12.9,10.2c0,0.7-0.1,1.4-0.2,2.1v0H7.8l0-0.1
	c-0.1-0.7-0.2-1.4-0.2-2.1c0-0.7,0.1-1.4,0.2-2.1v0h4.9l0,0.1C12.8,8.9,12.9,9.6,12.9,10.2z M8.2,6.2L8.2,6.2c0.4-1.5,1.1-2.9,2-4.2
	l0.1-0.1L10.3,2c0.9,1.3,1.6,2.7,2,4.1l0,0.1H8.2z M6.2,14.3L6.2,14.3C6.5,15.5,7,16.8,7.6,18l0.1,0.2l-0.2-0.1
	c-2-0.7-3.5-2-4.5-3.7L3,14.3H6.2z M12.3,14.3L12.3,14.3c-0.6,1.8-1.2,3.1-2,4.2l-0.1,0.1l-0.1-0.1c-0.9-1.3-1.6-2.7-2-4.1l0-0.1
	H12.3z M5.9,11.4c0,0.3,0,0.6,0,0.9v0.2H2.2l-0.1-0.2c-0.2-0.7-0.3-1.4-0.3-2s0.1-1.4,0.3-2l0-0.1h3.7l0,0.1c-0.1,0.7-0.1,1.3-0.1,2
	C5.8,10.7,5.8,11.1,5.9,11.4z"/>
</svg>
